# xmcd
#
# Track frame offsets:
#	150
#	1229
#	16188
#	25452
#	43695
#	60482
#	72755
#	73834
#	88179
#	105280
#	121468
#	133539
#	147965
#
# Disc length: 1985 seconds
#
# Revision: 1
# Processed by: cddbd v1.5.2PL0 Copyright (c) Steve Scherf et al.
# Submitted via: audiograbber 1.80
#
DISCID=ac07bf0d
DTITLE=sussi og leo synger - julesange
DYEAR=1900
DGENRE=
TTITLE0=we wish you a merry christmas
TTITLE1=søren banjomus
TTITLE2=nissen and rotterne
TTITLE3=mary's boy child
TTITLE4=højt fra træets høje top
TTITLE5=rudolf med den røde tud
TTITLE6=we wish you a merry christmas
TTITLE7=glade jul
TTITLE8=dejlig er den himmelblå
TTITLE9=til julebal
TTITLE10=du kære gamle julemand
TTITLE11=bjældeklang
TTITLE12=we wish you a merry christmas
EXTD=
EXTT0=
EXTT1=
EXTT2=
EXTT3=
EXTT4=
EXTT5=
EXTT6=
EXTT7=
EXTT8=
EXTT9=
EXTT10=
EXTT11=
EXTT12=
PLAYORDER=
